<svg width="34" height="34" viewBox="0 0 34 34" fill="none" xmlns="http://www.w3.org/2000/svg">
<path d="M26.9167 1.4165H12.7501C11.1917 1.4165 9.91675 2.6915 9.91675 4.24984V7.08317C9.91675 7.86234 10.5542 8.49984 11.3334 8.49984C12.1126 8.49984 12.7501 7.86234 12.7501 7.08317V5.6665H26.9167V28.3332H12.7501V26.9165C12.7501 26.1373 12.1126 25.4998 11.3334 25.4998C10.5542 25.4998 9.91675 26.1373 9.91675 26.9165V29.7498C9.91675 31.3082 11.1917 32.5832 12.7501 32.5832H26.9167C28.4751 32.5832 29.7501 31.3082 29.7501 29.7498V4.24984C29.7501 2.6915 28.4751 1.4165 26.9167 1.4165ZM15.3001 15.5832V13.4582C15.3001 11.4748 13.3167 9.9165 11.3334 9.9165C9.35008 9.9165 7.36675 11.4748 7.36675 13.4582V15.5832C6.51675 15.5832 5.66675 16.4332 5.66675 17.2832V22.2415C5.66675 23.2332 6.51675 24.0832 7.36675 24.0832H15.1584C16.1501 24.0832 17.0001 23.2332 17.0001 22.3832V17.4248C17.0001 16.4332 16.1501 15.5832 15.3001 15.5832ZM13.4584 15.5832H9.20841V13.4582C9.20841 12.3248 10.2001 11.6165 11.3334 11.6165C12.4667 11.6165 13.4584 12.3248 13.4584 13.4582V15.5832Z" fill="white"/>
</svg>
