<svg width="165" height="225" viewBox="0 0 165 225" fill="none" xmlns="http://www.w3.org/2000/svg">
<g clip-path="url(#clip0_828_2070)">
<path d="M77.668 223.076C63.7031 223.076 51.1055 220.879 39.875 216.484C28.7422 211.992 19.709 205.156 12.7754 195.977C5.8418 186.699 2.375 175.713 2.375 163.018C2.375 137.334 15.0215 118.877 40.3145 107.646C17.7559 96.9043 6.47656 80.1074 6.47656 57.2559C6.47656 48.2715 8.33203 40.2148 12.043 33.0859C15.7539 25.957 20.832 20.1465 27.2773 15.6543C33.8203 11.0645 41.3398 7.59766 49.8359 5.25391C58.4297 2.91016 67.707 1.73828 77.668 1.73828C98.3711 1.73828 115.363 6.57227 128.645 16.2402C142.023 25.9082 148.713 39.5801 148.713 57.2559C148.713 79.8145 138.264 96.6113 117.365 107.646C140.9 119.072 152.668 137.578 152.668 163.164C152.668 175.859 149.201 186.846 142.268 196.123C135.432 205.303 126.398 212.09 115.168 216.484C104.035 220.879 91.5352 223.076 77.668 223.076ZM48.6641 187.48C55.6953 193.438 65.3633 196.416 77.668 196.416C89.9727 196.416 99.5918 193.438 106.525 187.48C113.459 181.523 116.926 173.125 116.926 162.285C116.926 151.543 113.312 142.656 106.086 135.625C98.8594 128.594 89.3867 123.564 77.668 120.537C65.6562 123.564 56.0371 128.594 48.8105 135.625C41.6816 142.656 38.1172 151.592 38.1172 162.432C38.1172 173.174 41.6328 181.523 48.6641 187.48ZM77.668 97.6855C89.6797 94.9512 98.9082 90.2148 105.354 83.4766C111.799 76.6406 115.021 67.9492 115.021 57.4023C115.021 48.6133 111.506 41.5332 104.475 36.1621C97.4434 30.791 88.5078 28.1055 77.668 28.1055C66.9258 28.1055 57.9902 30.791 50.8613 36.1621C43.7324 41.5332 40.168 48.6133 40.168 57.4023C40.168 67.9492 43.4883 76.6406 50.1289 83.4766C56.7695 90.3125 65.9492 95.0488 77.668 97.6855Z" fill="white"/>
</g>
<defs>
<clipPath id="clip0_828_2070">
<rect width="165" height="225" fill="white"/>
</clipPath>
</defs>
</svg>
