<svg width="365" height="151" viewBox="0 0 365 151" fill="none" xmlns="http://www.w3.org/2000/svg">
<g clip-path="url(#clip0_1501_2107)">
<path d="M188.474 51.0516H171.78L168.605 60.5688H158.481L175.684 14.3787H184.507L201.805 60.5688H191.68L188.474 51.0516ZM174.35 43.3427H185.904L180.095 26.0531L174.35 43.3427ZM215.928 17.805V26.2435H221.799V32.9689H215.928V50.0999C215.928 51.3689 216.172 52.2783 216.659 52.8282C217.145 53.378 218.075 53.653 219.451 53.653C220.467 53.653 221.366 53.5791 222.149 53.431V60.3785C220.35 60.9284 218.499 61.2033 216.594 61.2033C210.162 61.2033 206.882 57.957 206.755 51.4641V32.9689H201.741V26.2435H206.755V17.805H215.928ZM224.53 43.0889C224.53 39.6839 225.184 36.649 226.497 33.9841C227.809 31.3194 229.692 29.2573 232.146 27.7979C234.622 26.3386 237.489 25.6091 240.748 25.6091C245.382 25.6091 249.159 27.026 252.078 29.8601C255.019 32.694 256.659 36.5432 256.998 41.4075L257.061 43.7551C257.061 49.0213 255.591 53.2512 252.649 56.4448C249.708 59.6172 245.762 61.2033 240.811 61.2033C235.86 61.2033 231.903 59.6172 228.941 56.4448C226 53.2723 224.53 48.9579 224.53 43.5014V43.0889ZM233.701 43.7551C233.701 47.0121 234.316 49.5077 235.542 51.2419C236.77 52.955 238.526 53.8117 240.811 53.8117C243.033 53.8117 244.768 52.9656 246.017 51.2737C247.264 49.5607 247.889 46.8324 247.889 43.0889C247.889 39.8954 247.264 37.4209 246.017 35.6655C244.768 33.9102 243.012 33.0324 240.748 33.0324C238.505 33.0324 236.77 33.9102 235.542 35.6655C234.316 37.3997 233.701 40.0963 233.701 43.7551ZM271.312 26.2435L271.598 30.0821C274.03 27.1 277.321 25.6091 281.468 25.6091C285.89 25.6091 288.927 27.3538 290.577 30.8434C292.989 27.3538 296.428 25.6091 300.893 25.6091C304.617 25.6091 307.389 26.6982 309.208 28.8765C311.027 31.0338 311.938 34.2908 311.938 38.6475V60.5688H302.734V38.6793C302.734 36.7336 302.352 35.3165 301.591 34.4283C300.829 33.5188 299.485 33.0641 297.56 33.0641C294.81 33.0641 292.905 34.3754 291.847 36.9979L291.879 60.5688H282.706V38.7111C282.706 36.7229 282.314 35.2848 281.532 34.3965C280.749 33.5083 279.416 33.0641 277.533 33.0641C274.931 33.0641 273.047 34.1427 271.883 36.3V60.5688H262.711V26.2435H271.312ZM328.696 60.5688H319.491V26.2435H328.696V60.5688ZM318.952 17.3607C318.952 15.9861 319.406 14.8546 320.316 13.9663C321.247 13.078 322.507 12.6339 324.093 12.6339C325.66 12.6339 326.908 13.078 327.839 13.9663C328.77 14.8546 329.236 15.9861 329.236 17.3607C329.236 18.7566 328.759 19.8987 327.807 20.7869C326.876 21.6752 325.638 22.1193 324.093 22.1193C322.549 22.1193 321.3 21.6752 320.349 20.7869C319.417 19.8987 318.952 18.7566 318.952 17.3607ZM350.564 53.8117C352.256 53.8117 353.631 53.3464 354.689 52.4158C355.747 51.4852 356.297 50.2479 356.339 48.704H364.941C364.92 51.0305 364.284 53.1666 363.037 55.1123C361.789 57.037 360.074 58.5384 357.894 59.6172C355.737 60.6746 353.345 61.2033 350.723 61.2033C345.813 61.2033 341.941 59.6488 339.106 56.5399C336.27 53.4098 334.853 49.0954 334.853 43.5965V42.9937C334.853 37.7065 336.26 33.4871 339.073 30.3358C341.888 27.1847 345.75 25.6091 350.659 25.6091C354.954 25.6091 358.392 26.8357 360.973 29.289C363.577 31.7211 364.899 34.9676 364.941 39.0283H356.339C356.297 37.2516 355.747 35.8135 354.689 34.7138C353.631 33.5929 352.235 33.0324 350.5 33.0324C348.363 33.0324 346.744 33.8149 345.644 35.38C344.566 36.924 344.025 39.4407 344.025 42.9303V43.882C344.025 47.414 344.566 49.9518 345.644 51.4958C346.723 53.0396 348.363 53.8117 350.564 53.8117ZM211.421 122.611L217.642 89.745H227.131L216.88 135.935H207.294L199.773 105.036L192.251 135.935H182.666L172.414 89.745H181.903L188.157 122.547L195.774 89.745H203.836L211.421 122.611ZM250.522 135.935C250.1 135.11 249.793 134.085 249.603 132.858C247.381 135.332 244.492 136.57 240.939 136.57C237.574 136.57 234.781 135.596 232.56 133.65C230.359 131.705 229.258 129.252 229.258 126.29C229.258 122.653 230.601 119.861 233.289 117.916C235.998 115.97 239.901 114.987 245.001 114.965H249.222V112.999C249.222 111.412 248.81 110.143 247.985 109.191C247.18 108.24 245.9 107.764 244.143 107.764C242.599 107.764 241.383 108.134 240.494 108.874C239.627 109.615 239.192 110.63 239.192 111.92H230.02C230.02 109.932 230.634 108.092 231.86 106.4C233.088 104.708 234.823 103.386 237.067 102.434C239.309 101.461 241.826 100.975 244.62 100.975C248.852 100.975 252.206 102.043 254.681 104.179C257.177 106.294 258.426 109.276 258.426 113.125V128.004C258.447 131.26 258.902 133.725 259.792 135.395V135.935H250.522ZM242.938 129.558C244.291 129.558 245.54 129.262 246.683 128.67C247.825 128.057 248.672 127.243 249.222 126.227V120.326H245.794C241.203 120.326 238.759 121.913 238.462 125.085L238.431 125.624C238.431 126.767 238.832 127.708 239.637 128.448C240.441 129.188 241.54 129.558 242.938 129.558ZM275.152 135.935H265.948V87.2069H275.152V135.935ZM292.418 135.935H283.214V87.2069H292.418V135.935ZM315.809 136.57C310.774 136.57 306.668 135.025 303.495 131.938C300.342 128.849 298.766 124.737 298.766 119.597V118.709C298.766 115.261 299.432 112.184 300.766 109.477C302.098 106.749 303.981 104.655 306.415 103.196C308.869 101.715 311.663 100.975 314.793 100.975C319.491 100.975 323.183 102.456 325.871 105.417C328.579 108.377 329.933 112.576 329.933 118.011V121.754H308.066C308.361 123.996 309.25 125.794 310.732 127.147C312.233 128.501 314.127 129.178 316.413 129.178C319.947 129.178 322.708 127.898 324.697 125.339L329.203 130.383C327.828 132.329 325.966 133.852 323.618 134.951C321.268 136.03 318.666 136.57 315.809 136.57ZM314.762 108.399C312.943 108.399 311.461 109.012 310.318 110.239C309.197 111.465 308.478 113.22 308.161 115.505H320.92V114.775C320.878 112.745 320.327 111.179 319.27 110.08C318.212 108.959 316.709 108.399 314.762 108.399ZM346.152 93.1712V101.61H352.023V108.335H346.152V125.467C346.152 126.735 346.395 127.644 346.882 128.194C347.368 128.743 348.3 129.019 349.675 129.019C350.69 129.019 351.59 128.945 352.373 128.796V135.744C350.574 136.294 348.723 136.57 346.818 136.57C340.386 136.57 337.107 133.323 336.98 126.831V108.335H331.964V101.61H336.98V93.1712H346.152Z" fill="#1F2843"/>
<path fill-rule="evenodd" clip-rule="evenodd" d="M0 150.661L46.4359 23.4989C52.3282 8.65199 63.3137 0.247952 77.9179 0.00540063V0C78.0268 0 78.1355 0.000448991 78.2441 0.00134611C78.3526 0.000448991 78.4613 0 78.5703 0V0.00540063C93.1745 0.247952 104.16 8.65199 110.052 23.4989L156.487 150.661L127.734 140.666L88.0663 32.0383C85.6516 26.03 82.8646 23.8672 78.2441 23.7717C73.6237 23.8672 70.8366 26.03 68.4221 32.0383L28.7547 140.666L0 150.661ZM98.4491 102.24C98.4491 113.348 89.5249 122.352 78.5163 122.352C67.508 122.352 58.584 113.348 58.584 102.24C58.584 91.1331 67.508 82.1286 78.5163 82.1286C89.5249 82.1286 98.4491 91.1331 98.4491 102.24Z" fill="url(#paint0_linear_1501_2107)"/>
</g>
<defs>
<linearGradient id="paint0_linear_1501_2107" x1="0" y1="0" x2="0" y2="150.661" gradientUnits="userSpaceOnUse">
<stop stop-color="#42C1FD"/>
<stop offset="1" stop-color="#1F8EFA"/>
</linearGradient>
<clipPath id="clip0_1501_2107">
<rect width="365" height="150.661" fill="white"/>
</clipPath>
</defs>
</svg>
