<svg width="165" height="225" viewBox="0 0 165 225" fill="none" xmlns="http://www.w3.org/2000/svg">
<g clip-path="url(#clip0_828_2070)">
<path d="M64.0449 223.076C51.4473 223.076 39.582 221.465 28.4492 218.242C17.4141 214.922 8.67383 210.479 2.22852 204.912L12.7754 177.227C18.1465 181.719 25.5684 185.43 35.041 188.359C44.5137 191.191 54.2305 192.607 64.1914 192.607C75.4219 192.607 84.4551 189.58 91.291 183.525C98.2246 177.471 101.691 169.561 101.691 159.795C101.691 153.74 100.715 148.516 98.7617 144.121C96.9062 139.727 94.416 136.211 91.291 133.574C88.166 130.938 83.9668 128.838 78.6934 127.275C73.5176 125.615 68.1953 124.492 62.7266 123.906C57.2578 123.32 50.666 122.979 42.9512 122.881C42.6582 122.881 41.2422 122.881 38.7031 122.881C36.1641 122.783 34.748 122.734 34.4551 122.734V93.1445H42.6582C51.1543 93.1445 58.4297 92.7051 64.4844 91.8262C70.6367 90.9473 76.3008 89.4336 81.4766 87.2852C86.75 85.1367 90.7051 81.9629 93.3418 77.7637C96.0762 73.5645 97.4434 68.3887 97.4434 62.2363C97.4434 53.9355 94.3184 46.8555 88.0684 40.9961C81.8184 35.1367 73.0293 32.207 61.7012 32.207C43.3418 32.207 26.9844 36.7969 12.6289 45.9766L2.08203 18.1445C19.8555 7.20703 40.9492 1.73828 65.3633 1.73828C85.7734 1.73828 102.424 7.10938 115.314 17.8516C128.303 28.5937 134.797 42.3633 134.797 59.1602C134.797 70.8789 131.77 80.8887 125.715 89.1895C119.758 97.3926 111.066 103.398 99.6406 107.207C112.727 109.746 122.834 116.045 129.963 126.104C137.189 136.162 140.803 148.027 140.803 161.699C140.803 174.688 137.336 185.918 130.402 195.391C123.469 204.766 114.289 211.748 102.863 216.338C91.4375 220.83 78.498 223.076 64.0449 223.076Z" fill="white"/>
</g>
<defs>
<clipPath id="clip0_828_2070">
<rect width="165" height="225" fill="white"/>
</clipPath>
</defs>
</svg>
