<svg width="165" height="225" viewBox="0 0 165 225" fill="none" xmlns="http://www.w3.org/2000/svg">
<g clip-path="url(#clip0_828_2070)">
<path d="M4.45117 221L3.57227 189.359L71.3945 112.602C79.793 103.617 85.8965 95.3652 89.7051 87.8457C93.6113 80.2285 95.5645 72.2207 95.5645 63.8223C95.5645 54.5449 92.5371 47.1719 86.4824 41.7031C80.4277 36.1367 72.4688 33.3535 62.6055 33.3535C53.5234 33.3535 44.5391 35.0625 35.6523 38.4805C26.8633 41.8008 19.6367 46 13.9727 51.0781L2.98633 22.0742C17.6348 9.18359 38.2402 2.73828 64.8027 2.73828C85.8965 2.73828 102.84 8.06055 115.633 18.7051C128.523 29.252 134.969 44.1934 134.969 63.5293C134.969 77.2012 131.307 90.2383 123.982 102.641C116.756 115.043 106.844 127.787 94.2461 140.873L45.9062 192.143H132.479L129.842 221H4.45117Z" fill="white"/>
</g>
<defs>
<clipPath id="clip0_828_2070">
<rect width="165" height="225" fill="white"/>
</clipPath>
</defs>
</svg>
