<svg width="165" height="225" viewBox="0 0 165 225" fill="none" xmlns="http://www.w3.org/2000/svg">
<g clip-path="url(#clip0_828_2070)">
<path d="M83.0879 220.076C59.2598 220.076 39.875 213.582 24.9336 200.594C9.99219 187.605 2.52148 170.467 2.52148 149.178C2.52148 142.342 3.25391 135.799 4.71875 129.549C6.18359 123.299 8.42969 117.195 11.457 111.238C14.4844 105.281 17.5117 100.008 20.5391 95.418C23.5664 90.8281 27.4727 85.3594 32.2578 79.0117L93.1953 2.10742H138.605L72.1016 86.043C79.2305 83.6016 85.1875 82.3809 89.9727 82.3809C110.969 82.3809 128.156 88.6797 141.535 101.277C154.914 113.777 161.604 130.086 161.604 150.203C161.604 171.102 154.279 187.996 139.631 200.887C124.982 213.68 106.135 220.076 83.0879 220.076ZM81.3301 190.779C94.2207 190.779 104.279 187.117 111.506 179.793C118.83 172.371 122.492 162.654 122.492 150.643C122.492 138.045 119.074 128.133 112.238 120.906C105.402 113.582 95.2461 109.92 81.7695 109.92C68.0977 109.92 58.0391 113.582 51.5938 120.906C45.1484 128.23 41.9258 138.24 41.9258 150.936C41.9258 162.947 45.3438 172.615 52.1797 179.939C59.0156 187.166 68.7324 190.779 81.3301 190.779Z" fill="white"/>
</g>
<defs>
<clipPath id="clip0_828_2070">
<rect width="165" height="225" fill="white"/>
</clipPath>
</defs>
</svg>
