<svg width="165" height="225" viewBox="0 0 165 225" fill="none" xmlns="http://www.w3.org/2000/svg">
<g clip-path="url(#clip0_828_2070)">
<path d="M65.3945 218.076C55.7266 218.076 45.7656 216.514 35.5117 213.389C25.2578 210.166 17.4453 207.139 12.0742 204.307C6.70312 201.377 3.13867 199.131 1.38086 197.568L13.0996 170.029C14.9551 171.494 17.6406 173.35 21.1562 175.596C24.7695 177.744 30.5312 180.234 38.4414 183.066C46.4492 185.898 54.1152 187.314 61.4395 187.314C75.1113 187.314 85.4629 183.506 92.4941 175.889C99.5254 168.271 103.041 158.311 103.041 146.006C103.041 134.385 99.8184 125.059 93.373 118.027C87.0254 110.996 78.7734 107.48 68.6172 107.48C56.5078 107.48 45.668 112.754 36.0977 123.301L10.4629 118.32L16.0293 1.42578H132.631L130.434 31.6016H50.0137C50.0137 33.3594 49.6719 42.1973 48.9883 58.1152C48.4023 73.9355 48.0605 82.7734 47.9629 84.6289C56.5566 80.0391 65.5898 77.7441 75.0625 77.7441C94.7891 77.7441 110.658 84.0918 122.67 96.7871C134.779 109.482 140.834 126.035 140.834 146.445C140.834 168.125 134.193 185.508 120.912 198.594C107.729 211.582 89.2227 218.076 65.3945 218.076Z" fill="white"/>
</g>
<defs>
<clipPath id="clip0_828_2070">
<rect width="165" height="225" fill="white"/>
</clipPath>
</defs>
</svg>
